<?xml version="1.0" encoding="utf-8"?>
<!-- Generator: Adobe Illustrator 24.0.2, SVG Export Plug-In . SVG Version: 6.00 Build 0)  -->
<svg version="1.1" id="Capa_1" xmlns="http://www.w3.org/2000/svg" xmlns:xlink="http://www.w3.org/1999/xlink" x="0px" y="0px"
	 viewBox="0 0 2000 674" style="enable-background:new 0 0 2000 674;" xml:space="preserve">
<style type="text/css">
	.st0{fill-rule:evenodd;clip-rule:evenodd;fill:#FFFFFF;}
</style>
<path class="st0" d="M0,53.1l83.5-8.2c85.4-9,252.4-27,421.2-9c167,17.2,335.9,71.1,504.7,102.1c167,31,335.9,40,502.9,13.1
	c168.8-27,335.8-89,421.2-120.1L2000,0v215.3V674c-68.4,0-318.9,0-487.7,0c-167,0-335.9,0-502.9,0c-168.9,0-337.7,0-504.7,0
	c-168.9,0-335.9,0-421.2,0H0V53.1z"/>
</svg>
